<?xml version="1.0" encoding="UTF-8"?>
<svg id="Layer_1" xmlns="http://www.w3.org/2000/svg" version="1.1" viewBox="16 7 122 122">
  <defs>
    <style>
      .st0, .st1 {
        stroke-linecap: round;
      }

      .st0, .st1, .st2 {
        fill: none;
        stroke: #000;
        stroke-miterlimit: 10;
        stroke-width: 3px;
      }

      .st1 {
        stroke-dasharray: 11.43 11.43;
      }
    </style>
  </defs>
  
  <rect x="16" y="7" width="122" height="122" rx="12" fill="#ffffff"/>

  <path class="st2" d="M130.31,33.84c0,4.03-6.3,7.3-14.08,7.3s-14.08-3.27-14.08-7.3,6.3-7.3,14.08-7.3,14.08,3.27,14.08,7.3ZM102.16,33.84v22.67M130.31,33.84v22.67M102.16,56.51c0,4.03,6.3,7.3,14.08,7.3s14.08-3.27,14.08-7.3"/>
  <path class="st2" d="M76.38,73.31c0,4.03-6.3,7.3-14.08,7.3s-14.08-3.27-14.08-7.3,6.3-7.3,14.08-7.3,14.08,3.27,14.08,7.3ZM48.22,73.31v22.67M76.38,73.31v22.67M48.22,95.97c0,4.03,6.3,7.3,14.08,7.3s14.08-3.27,14.08-7.3"/>
  <g>
    <path class="st0" d="M62.3,73.31s.15-2.32.62-5.96"/>
    <path class="st1" d="M64.91,56.09c4.26-19.05,15.11-45.07,41.86-29.14"/>
    <path class="st0" d="M111.53,30.12c1.52,1.11,3.09,2.35,4.71,3.73"/>
  </g>
  <g>
    <circle class="st0" cx="29.08" cy="67.23" r="7.08"/>
    <line class="st0" x1="35.47" y1="70.28" x2="51.43" y2="77.91"/>
  </g>
  <g>
    <circle class="st0" cx="101.14" cy="85.91" r="7.08"/>
    <line class="st0" x1="94.07" y1="86.03" x2="76.38" y2="86.33"/>
  </g>
  <g>
    <circle class="st0" cx="32.93" cy="96.41" r="7.08"/>
    <line class="st0" x1="39.49" y1="93.76" x2="55.89" y2="87.13"/>
  </g>
</svg>
