<?xml version="1.0" encoding="UTF-8"?>
<svg id="Layer_1" xmlns="http://www.w3.org/2000/svg" version="1.1" viewBox="0 0 442.13 129.59">
  <!-- Generator: Adobe Illustrator 29.8.1, SVG Export Plug-In . SVG Version: 2.1.1 Build 2)  -->
  <defs>
    <style>
      .logo-path { 
        fill: #000000; 
        transition: fill 0.3s;
      }

      @media (prefers-color-scheme: dark) {
        .logo-path { fill: #FFFFFF; }
      }

      .st0, .st1 { stroke-linecap: round; }
      .st0, .st1, .st2 {
        fill: none;
        stroke: #000;
        stroke-miterlimit: 10;
        stroke-width: 3px;
      }
      .st1 { stroke-dasharray: 11.43 11.43; }

      @media (prefers-color-scheme: dark) {
        .st0, .st1, .st2 { stroke: #FFFFFF; }
      }
    </style>
  </defs>
  <g>
    <path class="logo-path" d="M153.29,86.38c-1.89,0-3.66-.15-5.31-.46s-3.18-.76-4.58-1.37l.61-4.73c1.72.73,3.38,1.29,4.98,1.68s3.16.57,4.68.57c2.19,0,3.81-.38,4.88-1.15s1.59-1.93,1.59-3.49c0-1.98-1.02-3.44-3.05-4.36l-5.77-2.62c-2.27-1.03-4-2.27-5.21-3.73s-1.82-3.26-1.82-5.41c0-2.91.88-5.16,2.62-6.75s4.23-2.39,7.43-2.39c2.23,0,4.21.33,5.93.98s3.38,1.73,4.97,3.21l-3.28,3.33c-1.38-1.12-2.66-1.94-3.86-2.45s-2.44-.76-3.74-.76c-1.61,0-2.86.39-3.74,1.16s-1.32,1.92-1.32,3.43c0,1.08.29,1.96.87,2.64s1.43,1.29,2.55,1.82l4.88,2.3c2.47,1.16,4.34,2.46,5.62,3.91s1.92,3.32,1.92,5.6c0,3.02-.98,5.28-2.94,6.79s-4.93,2.26-8.92,2.26Z"/>
    <path class="logo-path" d="M184.72,86.38c-4.23,0-7.5-1.11-9.81-3.34s-3.46-5.43-3.46-9.6.98-7.22,2.93-9.47,4.71-3.38,8.27-3.38c3.36,0,5.96,1.02,7.79,3.05s2.75,4.98,2.75,8.86c0,1.14-.05,2.2-.14,3.19h-17.44v-3.8h13.08c0-2.23-.53-3.95-1.59-5.14s-2.53-1.79-4.41-1.79c-2.11,0-3.75.72-4.91,2.16s-1.75,3.47-1.75,6.09c0,2.88.8,5.06,2.4,6.56s3.88,2.25,6.83,2.25c1.03,0,2.05-.06,3.05-.18s2.02-.28,3.05-.48l.61,4.36c-1.47.28-2.81.46-4.03.54s-2.3.12-3.23.12Z"/>
    <path class="logo-path" d="M198.5,85.91v-4.36h16.59v4.36h-16.59ZM199.44,65.42v-4.36h8.3l.47,4.36h-8.77ZM204.03,85.91v-24.84h4.03l.94,7.12v17.72h-4.97ZM209,75.22l-1.45-7.78h1.92c.28-4.56,2.56-6.84,6.84-6.84,2.56,0,4.42.73,5.58,2.2s1.73,3.84,1.73,7.12h-4.92c0-1.81-.27-3.12-.81-3.91s-1.41-1.2-2.61-1.2c-2.11,0-3.68.9-4.72,2.71s-1.56,4.37-1.56,7.7Z"/>
    <path class="logo-path" d="M235.51,85.91l-8.88-24.84h5.3l6.68,20.62h.42l6.68-20.62h5.3l-8.88,24.84h-6.61Z"/>
    <path class="logo-path" d="M269.09,86.38c-4.23,0-7.5-1.11-9.81-3.34s-3.46-5.43-3.46-9.6.98-7.22,2.93-9.47,4.71-3.38,8.27-3.38c3.36,0,5.96,1.02,7.79,3.05s2.75,4.98,2.75,8.86c0,1.14-.05,2.2-.14,3.19h-17.44v-3.8h13.08c0-2.23-.53-3.95-1.59-5.14s-2.53-1.79-4.41-1.79c-2.11,0-3.75.72-4.91,2.16s-1.75,3.47-1.75,6.09c0,2.88.8,5.06,2.4,6.56s3.88,2.25,6.83,2.25c1.03,0,2.05-.06,3.05-.18s2.02-.28,3.05-.48l.61,4.36c-1.47.28-2.81.46-4.03.54s-2.3.12-3.23.12Z"/>
    <path class="logo-path" d="M284.28,85.91v-33.28h4.88v33.28h-4.88ZM285.27,71.56v-4.45h19.71v4.45h-19.71ZM300.97,85.91v-33.28h4.88v33.28h-4.88Z"/>
    <path class="logo-path" d="M320.75,86.38c-2.61,0-4.63-.78-6.06-2.33s-2.14-3.75-2.14-6.57v-16.41h4.97v16.41c0,1.42.41,2.52,1.22,3.29s1.95,1.16,3.42,1.16c1.81,0,3.18-.57,4.1-1.72s1.38-3.07,1.38-5.78l1.27,6.7h-1.64c-.39,1.69-1.16,2.98-2.3,3.89s-2.55,1.36-4.22,1.36ZM327.64,78.88v-17.81h4.97v16.41l-4.97,1.41ZM328.06,86.14l-.42-5.95v-4.36h4.97v5.58l3.42.52v3.98l-7.97.23Z"/>
    <path class="logo-path" d="M341.07,85.91v-35.16h4.97v34.73l-4.97.42ZM347.73,86.38c-1.12,0-2.23-.04-3.33-.13s-2.2-.2-3.33-.34l1.92-4.55c.83.39,1.74.62,2.74.69s1.99.11,2.98.11c2.98,0,5.29-.9,6.93-2.7s2.45-4.34,2.45-7.62c0-2.25-.5-3.98-1.49-5.2s-2.4-1.83-4.23-1.83c-4.22,0-6.33,2.38-6.33,7.12l-1.45-6.38h1.92c.23-3.31,2.27-4.97,6.09-4.97,3.31,0,5.88.98,7.69,2.93s2.72,4.73,2.72,8.32c0,4.61-1.33,8.18-4,10.72s-6.43,3.81-11.29,3.81Z"/>
    <path class="logo-path" d="M367.72,71.47v-4.36h23.44v4.36h-23.44Z"/>
    <path class="logo-path" d="M397.06,85.91v-5.34c5.14-2.84,8.98-5.8,11.52-8.87s3.81-6.24,3.81-9.5c0-1.91-.47-3.34-1.41-4.29s-2.36-1.43-4.27-1.43c-1.27,0-2.59.37-3.96,1.1s-2.55,1.71-3.54,2.93l-3.23-3.21c1.08-1.55,2.61-2.79,4.59-3.73s4.06-1.41,6.23-1.41c3.52,0,6.14.83,7.89,2.5s2.61,4.18,2.61,7.54-1.07,6.58-3.2,9.67-5.38,6.05-9.74,8.89v5.16h-7.31ZM398.47,85.91v-4.45h20.25v4.45h-20.25Z"/>
  </g>
  <path class="st2 logo-path" d="M130.31,33.84c0,4.03-6.3,7.3-14.08,7.3s-14.08-3.27-14.08-7.3,6.3-7.3,14.08-7.3,14.08,3.27,14.08,7.3ZM102.16,33.84v22.67M130.31,33.84v22.67M102.16,56.51c0,4.03,6.3,7.3,14.08,7.3s14.08-3.27,14.08-7.3"/>
  <path class="st2 logo-path" d="M76.38,73.31c0,4.03-6.3,7.3-14.08,7.3s-14.08-3.27-14.08-7.3,6.3-7.3,14.08-7.3,14.08,3.27,14.08,7.3ZM48.22,73.31v22.67M76.38,73.31v22.67M48.22,95.97c0,4.03,6.3,7.3,14.08,7.3s14.08-3.27,14.08-7.3"/>
  <g>
    <path class="st0 logo-path" d="M62.3,73.31s.15-2.32.62-5.96"/>
    <path class="st1 logo-path" d="M64.91,56.09c4.26-19.05,15.11-45.07,41.86-29.14"/>
    <path class="st0 logo-path" d="M111.53,30.12c1.52,1.11,3.09,2.35,4.71,3.73"/>
  </g>
  <g>
    <circle class="st0 logo-path" cx="29.08" cy="67.23" r="7.08"/>
    <line class="st0 logo-path" x1="35.47" y1="70.28" x2="51.43" y2="77.91"/>
  </g>
  <g>
    <circle class="st0 logo-path" cx="101.14" cy="85.91" r="7.08"/>
    <line class="st0 logo-path" x1="94.07" y1="86.03" x2="76.38" y2="86.33"/>
  </g>
  <g>
    <circle class="st0 logo-path" cx="32.93" cy="96.41" r="7.08"/>
    <line class="st0 logo-path" x1="39.49" y1="93.76" x2="55.89" y2="87.13"/>
  </g>
</svg>